<svg width="73" height="73" viewBox="0 0 73 73" fill="none" xmlns="http://www.w3.org/2000/svg">
<g clip-path="url(#clip0_268_2200)">
<path d="M52.1009 40.0364L45.8646 46.0519C43.7325 48.095 40.1259 46.6169 40.1402 43.7066L40.1529 41.0797C40.1588 39.7506 38.5066 39.08 37.5391 40.02L31.3003 46.0412C29.1707 48.0884 25.5591 46.6104 25.5734 43.6984L25.586 40.8299C25.5945 39.4984 23.9398 38.8278 22.9748 39.7686L16.736 45.7857C14.6064 47.8313 10.9973 46.3532 11.0116 43.4429V43.4413L11.0243 40.5703V40.5605C11.0243 39.2372 9.37551 38.5723 8.41304 39.5091L1.13594 46.5841C1.01132 46.7053 0.842061 46.7749 0.666913 46.7749C0.266933 46.7749 0 46.4556 0 46.1239C0 45.9651 0.0614706 45.8029 0.1962 45.6719L18.4428 27.836C19.2916 27.0048 20.7526 27.596 20.7459 28.7687L20.7113 35.8413C20.7029 37.4381 22.6885 38.2455 23.8514 37.1171L33.0012 28.1455C33.8517 27.3103 35.3144 27.9015 35.3085 29.0741L35.2782 35.8454C35.2697 37.4447 37.257 38.2496 38.4182 37.1188L47.5664 28.1234C48.4152 27.2865 49.882 27.8736 49.8761 29.0496L49.8416 35.8225C49.8332 37.4217 51.8205 38.2251 52.9834 37.0958L69.2537 21.2244C69.3985 21.0819 69.5981 21 69.8044 21C70.2717 21 70.5816 21.3726 70.5816 21.7616C70.5816 21.9483 70.5126 22.1366 70.3534 22.2914L67.9316 24.644C65.7061 26.8083 64.4556 29.7448 64.4556 32.8057V33.8654C64.4556 36.123 67.2647 37.2539 68.9051 35.6587L71.8775 32.7681C72.2918 32.3635 73 32.651 73 33.2201V33.4862C73 33.659 72.931 33.8211 72.8063 33.9423L60.4474 45.9593C58.3237 48.0245 54.6919 46.5522 54.7062 43.6321L54.7188 41.0944C54.7247 39.7654 53.0726 39.0947 52.1051 40.0348" fill="black"/>
<path d="M43.7729 21.1179C46.033 21.0041 47.7702 22.6943 47.654 24.8921C47.5369 27.09 45.6103 28.9636 43.3511 29.0766C41.091 29.1904 39.3538 27.5003 39.47 25.3024C39.587 23.1045 41.5137 21.2309 43.7729 21.1179Z" fill="black"/>
</g>
<defs>
<clipPath id="clip0_268_2200">
<rect width="73" height="26" fill="white" transform="translate(0 21)"/>
</clipPath>
</defs>
</svg>
