<svg width="168" height="168" viewBox="0 0 168 168" fill="none" xmlns="http://www.w3.org/2000/svg">
<path d="M84.6326 159.185C125.807 159.185 159.185 125.807 159.185 84.6326C159.185 43.4584 125.807 10.0801 84.6326 10.0801C43.4584 10.0801 10.0801 43.4584 10.0801 84.6326C10.0801 125.807 43.4584 159.185 84.6326 159.185Z" stroke="#292C33" stroke-width="5.04" stroke-miterlimit="10"/>
<path d="M34.5479 69.2039L80.6934 34.9388C83.0417 33.1965 86.2485 33.1965 88.5968 34.9388L134.604 69.1913" stroke="#292C33" stroke-width="5.04" stroke-miterlimit="10" stroke-linecap="round"/>
<path d="M118.229 57.0083V36.7952" stroke="#292C33" stroke-width="5.04" stroke-miterlimit="10" stroke-linecap="round"/>
<path d="M75.2649 63.7751H77.3733C78.6106 63.7751 79.608 64.7725 79.608 66.0098V69.2293C79.608 70.5423 78.5474 71.6028 77.2344 71.6028H74.015C72.7777 71.6028 71.7803 70.6054 71.7803 69.3682V67.2597C71.7803 65.3407 73.3458 63.7751 75.2649 63.7751Z" stroke="#292C33" stroke-width="5.04" stroke-miterlimit="10" stroke-linecap="round"/>
<path d="M95.2516 71.6025H92.0322C90.7192 71.6025 89.6586 70.542 89.6586 69.229V66.0095C89.6586 64.7722 90.656 63.7748 91.8933 63.7748H94.0017C95.9208 63.7748 97.4863 65.3404 97.4863 67.2594V69.3679C97.4863 70.6051 96.4889 71.6025 95.2516 71.6025Z" stroke="#292C33" stroke-width="5.04" stroke-miterlimit="10" stroke-linecap="round"/>
<path d="M74.0286 79.1782H77.2481C78.5611 79.1782 79.6216 80.2388 79.6216 81.5518V84.7712C79.6216 86.0085 78.6242 87.0059 77.387 87.0059H75.2785C73.3595 87.0059 71.7939 85.4404 71.7939 83.5213V81.4129C71.7939 80.1756 72.7913 79.1782 74.0286 79.1782Z" stroke="#292C33" stroke-width="5.04" stroke-miterlimit="10" stroke-linecap="round"/>
<path d="M94.0017 87.0056H91.8933C90.656 87.0056 89.6586 86.0082 89.6586 84.7709V81.5515C89.6586 80.2384 90.7192 79.1779 92.0322 79.1779H95.2516C96.4889 79.1779 97.4863 80.1753 97.4863 81.4126V83.521C97.4863 85.4401 95.9208 87.0056 94.0017 87.0056Z" stroke="#292C33" stroke-width="5.04" stroke-miterlimit="10" stroke-linecap="round"/>
<path d="M127.091 84.5061C127.091 116.789 100.919 142.974 68.6231 142.974C36.3276 142.974 10.1553 116.789 10.1553 84.5061" stroke="#292C33" stroke-width="5.04" stroke-miterlimit="10" stroke-linecap="round"/>
<path d="M143.088 91.7026C143.088 123.986 116.916 150.171 84.6203 150.171C52.3247 150.171 26.165 123.998 26.165 91.7026" stroke="#292C33" stroke-width="5.04" stroke-miterlimit="10" stroke-linecap="round"/>
<path d="M159.172 84.5061C159.172 116.789 133 142.974 100.704 142.974C68.4086 142.974 42.2363 116.802 42.2363 84.5061" stroke="#292C33" stroke-width="5.04" stroke-miterlimit="10" stroke-linecap="round"/>
</svg>
