<svg width="40" height="40" viewBox="0 0 40 40" fill="none" xmlns="http://www.w3.org/2000/svg">
<rect width="40" height="40" rx="20" fill="url(#paint0_radial_361_964)"/>
<path d="M16.4917 21.9587C16.4917 23.0405 15.6147 23.9175 14.533 23.9175C13.4512 23.9175 12.5742 23.0405 12.5742 21.9587C12.5742 20.877 13.4512 20 14.533 20C15.6147 20 16.4917 20.877 16.4917 21.9587Z" fill="#A56D2C"/>
<path d="M25.9722 14.9071C25.9722 15.9889 25.0952 16.8658 24.0134 16.8658C22.9316 16.8658 22.0547 15.9889 22.0547 14.9071C22.0547 13.8253 22.9316 12.9484 24.0134 12.9484C25.0952 12.9484 25.9722 13.8253 25.9722 14.9071Z" fill="#A56D2C"/>
<path fill-rule="evenodd" clip-rule="evenodd" d="M26.5465 18.2231C26.7466 18.0327 27.0631 18.0407 27.2534 18.2408L26.8911 18.5854C27.2534 18.2408 27.2537 18.2411 27.2541 18.2415L27.2548 18.2423L27.2565 18.244L27.2602 18.2481L27.2696 18.2585C27.2767 18.2664 27.2853 18.2764 27.2953 18.2884C27.3152 18.3125 27.3405 18.3448 27.3691 18.3853C27.4261 18.4663 27.4967 18.5808 27.5634 18.7284C27.6978 19.0257 27.8141 19.452 27.7765 19.996C27.7012 21.0881 27.0183 22.5384 24.9187 24.3125C22.8114 26.0931 21.2145 26.5127 20.0783 26.4011C19.5147 26.3457 19.0919 26.1614 18.8048 25.983C18.6619 25.8943 18.5532 25.8074 18.4774 25.7394C18.4394 25.7054 18.4096 25.6759 18.3876 25.6531C18.3766 25.6417 18.3676 25.6319 18.3605 25.624L18.3513 25.6136L18.3478 25.6096L18.3463 25.6078L18.3456 25.607C18.3453 25.6066 18.345 25.6063 18.7269 25.2836L18.345 25.6063C18.1667 25.3954 18.1932 25.0799 18.4042 24.9017C18.6133 24.7249 18.9253 24.7495 19.1043 24.9556C19.105 24.9564 19.1062 24.9577 19.1081 24.9596C19.1142 24.9659 19.1265 24.9783 19.1451 24.995C19.1825 25.0286 19.2447 25.0791 19.3324 25.1336C19.5065 25.2417 19.7839 25.3673 20.1761 25.4059C20.9517 25.482 22.2893 25.2251 24.2732 23.5487C26.2648 21.8659 26.7295 20.6435 26.7789 19.9272C26.8037 19.567 26.7267 19.3052 26.6522 19.1404C26.6145 19.0569 26.5767 18.9969 26.5515 18.9612C26.5389 18.9433 26.5296 18.9317 26.5252 18.9264C26.5243 18.9253 26.5236 18.9245 26.5232 18.9239C26.3387 18.7236 26.3484 18.4115 26.5465 18.2231Z" fill="#A56D2C"/>
<defs>
<radialGradient id="paint0_radial_361_964" cx="0" cy="0" r="1" gradientUnits="userSpaceOnUse" gradientTransform="translate(22.9165 24.1882) rotate(95.5656) scale(30.0718)">
<stop stop-color="#FFD796"/>
<stop offset="1" stop-color="#ED993E"/>
</radialGradient>
</defs>
</svg>
